<?xml version="1.0" encoding="utf-8"?>
<!-- Generator: Adobe Illustrator 19.0.1, SVG Export Plug-In . SVG Version: 6.00 Build 0)  -->
<svg version="1.1" id="Layer_1" xmlns:sketch="http://www.bohemiancoding.com/sketch/ns"
	 xmlns="http://www.w3.org/2000/svg" xmlns:xlink="http://www.w3.org/1999/xlink" x="0px" y="0px" viewBox="-463 265 32 32"
	 style="enable-background:new -463 265 32 32;" xml:space="preserve">
<style type="text/css">
	.st0{fill:#FFFFFF;}
</style>
<title></title>
<desc></desc>
<g id="Page-1">
	<g id="icon-129-cloud-download">
		<path id="cloud-download" class="st0" d="M-448,292.2l-3.2-3.2l-0.8,0.8l4.5,4.5l4.5-4.5l-0.8-0.8l-3.2,3.2V281h-1V292.2
			L-448,292.2z M-449,287h-7c-2.2,0-4-1.8-4-4c0-1.9,1.3-3.5,3.1-3.9l0,0c-0.1-0.4-0.1-0.7-0.1-1.1c0-3.3,2.7-6,6-6
			c2.6,0,4.8,1.7,5.7,4c0.8-0.6,1.8-1,2.8-1c2.4,0,4.3,1.8,4.5,4.1l0,0c1.7,0.4,3,2,3,3.9c0,2.2-1.8,4-4,4h-7v1h7c2.8,0,5-2.2,5-5
			c0-2.1-1.3-3.9-3.1-4.6l0,0c-0.5-2.5-2.7-4.4-5.4-4.4c-0.9,0-1.7,0.2-2.4,0.6c-1.2-2.1-3.5-3.6-6.1-3.6c-3.9,0-7,3.1-7,7
			c0,0.1,0,0.3,0,0.4l0,0c-1.8,0.8-3,2.5-3,4.6c0,2.8,2.2,5,5,5h7V287L-449,287L-449,287z"/>
	</g>
</g>
</svg>
